# Blender v2.79 (sub 0) OBJ File: 'blender.blend'
# www.blender.org
mtllib blender.mtl
o Cylinder
v 0.000000 -0.552619 -0.284492
v 0.000000 0.552619 -0.402941
v 0.055502 -0.552619 -0.279026
v 0.078610 0.552619 -0.395199
v 0.108871 -0.552619 -0.262837
v 0.154199 0.552619 -0.372269
v 0.158055 -0.552619 -0.236547
v 0.223862 0.552619 -0.335034
v 0.201166 -0.552619 -0.201167
v 0.284923 0.552619 -0.284923
v 0.236547 -0.552619 -0.158056
v 0.335034 0.552619 -0.223862
v 0.262837 -0.552619 -0.108871
v 0.372269 0.552619 -0.154199
v 0.279026 -0.552619 -0.055502
v 0.395199 0.552619 -0.078610
v 0.284492 -0.552619 -0.000000
v 0.402941 0.552619 -0.000000
v 0.279026 -0.552619 0.055501
v 0.395199 0.552619 0.078610
v 0.262837 -0.552619 0.108870
v 0.372269 0.552619 0.154199
v 0.236547 -0.552619 0.158055
v 0.335034 0.552619 0.223862
v 0.201166 -0.552619 0.201166
v 0.284923 0.552619 0.284922
v 0.158055 -0.552619 0.236546
v 0.223862 0.552619 0.335033
v 0.108870 -0.552619 0.262836
v 0.154199 0.552619 0.372269
v 0.055502 -0.552619 0.279026
v 0.078610 0.552619 0.395199
v -0.000000 -0.552619 0.284492
v -0.000000 0.552619 0.402941
v -0.055502 -0.552619 0.279025
v -0.078610 0.552619 0.395199
v -0.108870 -0.552619 0.262836
v -0.154199 0.552619 0.372269
v -0.150923 -0.642655 0.225872
v -0.223862 0.552619 0.335033
v -0.201166 -0.552619 0.201166
v -0.284923 0.552619 0.284922
v -0.236547 -0.552619 0.158055
v -0.335034 0.552619 0.223862
v -0.262837 -0.552619 0.108870
v -0.372269 0.552619 0.154198
v -0.279026 -0.552619 0.055501
v -0.395199 0.552619 0.078609
v -0.284492 -0.552619 -0.000000
v -0.402941 0.552619 -0.000001
v -0.279026 -0.552619 -0.055502
v -0.395199 0.552619 -0.078611
v -0.262836 -0.552619 -0.108871
v -0.372269 0.552619 -0.154200
v -0.236546 -0.552619 -0.158056
v -0.335033 0.552619 -0.223863
v -0.201166 -0.552619 -0.201167
v -0.284922 0.552619 -0.284923
v -0.158055 -0.552619 -0.236547
v -0.223862 0.552619 -0.335034
v -0.108870 -0.552619 -0.262837
v -0.154198 0.552619 -0.372270
v -0.055501 -0.552619 -0.279026
v -0.078609 0.552619 -0.395199
v 0.064261 0.552619 -0.323063
v 0.000000 0.552619 -0.329392
v 0.126053 0.552619 -0.304319
v 0.183000 0.552619 -0.273880
v 0.232915 0.552619 -0.232915
v 0.273879 0.552619 -0.183001
v 0.304319 0.552619 -0.126053
v 0.323063 0.552619 -0.064261
v 0.329392 0.552619 -0.000000
v 0.323063 0.552619 0.064261
v 0.304319 0.552619 0.126053
v 0.273879 0.552619 0.183000
v 0.232915 0.552619 0.232915
v 0.183000 0.552619 0.273879
v 0.126053 0.552619 0.304318
v 0.064261 0.552619 0.323063
v -0.000000 0.552619 0.329392
v -0.064261 0.552619 0.323063
v -0.126053 0.552619 0.304318
v -0.183000 0.552619 0.273879
v -0.232915 0.552619 0.232915
v -0.273879 0.552619 0.183000
v -0.304318 0.552619 0.126052
v -0.323063 0.552619 0.064261
v -0.329392 0.552619 -0.000001
v -0.323063 0.552619 -0.064262
v -0.304318 0.552619 -0.126053
v -0.273879 0.552619 -0.183001
v -0.232915 0.552619 -0.232916
v -0.183000 0.552619 -0.273880
v -0.126052 0.552619 -0.304319
v -0.064261 0.552619 -0.323063
v 0.047643 -0.283665 -0.239517
v 0.000000 -0.283665 -0.244209
v 0.093455 -0.283665 -0.225620
v 0.135675 -0.283665 -0.203052
v 0.172682 -0.283665 -0.172682
v 0.203052 -0.283665 -0.135675
v 0.225620 -0.283665 -0.093455
v 0.239516 -0.283665 -0.047643
v 0.244209 -0.283665 -0.000000
v 0.239516 -0.283665 0.047643
v 0.225620 -0.283665 0.093454
v 0.203052 -0.283665 0.135675
v 0.172682 -0.283665 0.172681
v 0.135675 -0.283665 0.203052
v 0.093455 -0.283665 0.225619
v 0.047643 -0.283665 0.239516
v -0.000000 -0.283665 0.244209
v -0.047643 -0.283665 0.239516
v -0.093455 -0.283665 0.225619
v -0.135675 -0.283665 0.203052
v -0.172682 -0.283665 0.172681
v -0.203052 -0.283665 0.135675
v -0.225620 -0.283665 0.093454
v -0.239516 -0.283665 0.047642
v -0.244209 -0.283665 -0.000000
v -0.239516 -0.283665 -0.047643
v -0.225619 -0.283665 -0.093455
v -0.203052 -0.283665 -0.135676
v -0.172681 -0.283665 -0.172682
v -0.135675 -0.283665 -0.203053
v -0.093454 -0.283665 -0.225620
v -0.047642 -0.283665 -0.239517
v -0.355872 -0.949964 0.356315
v -0.298240 -0.444974 0.298682
v -0.355872 -0.949964 -0.353646
v -0.298240 -0.444974 -0.296014
v 0.354089 -0.949964 0.356315
v 0.296457 -0.444974 0.298682
v 0.354089 -0.949964 -0.353646
v 0.296457 -0.444974 -0.296014
v 0.363666 -0.559879 -0.050745
v 0.287714 -0.590976 -0.050745
v 0.287714 -0.590976 0.132453
v 0.363666 -0.559879 0.132453
v 0.290747 -0.598385 0.133242
v 0.366700 -0.567288 0.133242
v 0.293664 -0.605509 0.135577
v 0.369617 -0.574412 0.135577
v 0.296352 -0.612075 0.139369
v 0.372305 -0.580977 0.139369
v 0.298708 -0.617830 0.144472
v 0.374661 -0.586732 0.144472
v 0.300642 -0.622553 0.150691
v 0.376595 -0.591455 0.150691
v 0.302079 -0.626062 0.157786
v 0.378032 -0.594964 0.157786
v 0.302964 -0.628223 0.165484
v 0.378916 -0.597125 0.165484
v 0.303262 -0.628953 0.173489
v 0.379215 -0.597855 0.173489
v 0.302964 -0.628223 0.181495
v 0.378916 -0.597125 0.181495
v 0.302079 -0.626062 0.189193
v 0.378032 -0.594964 0.189193
v 0.300642 -0.622553 0.196288
v 0.376595 -0.591455 0.196288
v 0.298708 -0.617830 0.202506
v 0.374661 -0.586732 0.202506
v 0.296352 -0.612075 0.207610
v 0.372305 -0.580977 0.207610
v 0.293664 -0.605509 0.211402
v 0.369617 -0.574412 0.211402
v 0.290747 -0.598385 0.213737
v 0.366700 -0.567288 0.213737
v 0.287714 -0.590976 0.214526
v 0.363666 -0.559879 0.214526
v 0.284680 -0.583568 0.213737
v 0.360633 -0.552470 0.213737
v 0.281763 -0.576443 0.211402
v 0.357716 -0.545346 0.211402
v 0.279075 -0.569878 0.207610
v 0.355028 -0.538780 0.207610
v 0.276719 -0.564123 0.202506
v 0.352672 -0.533025 0.202506
v 0.274785 -0.559400 0.196288
v 0.350738 -0.528303 0.196288
v 0.273348 -0.555891 0.189193
v 0.349301 -0.524793 0.189193
v 0.272464 -0.553730 0.181495
v 0.348416 -0.522632 0.181495
v 0.272165 -0.553000 0.173489
v 0.348118 -0.521902 0.173489
v 0.272464 -0.553730 0.165484
v 0.348416 -0.522632 0.165484
v 0.273348 -0.555891 0.157786
v 0.349301 -0.524793 0.157786
v 0.274785 -0.559400 0.150691
v 0.350738 -0.528303 0.150691
v 0.276719 -0.564123 0.144472
v 0.352672 -0.533026 0.144472
v 0.279075 -0.569878 0.139369
v 0.355028 -0.538780 0.139369
v 0.281763 -0.576443 0.135577
v 0.357716 -0.545346 0.135577
v 0.284680 -0.583568 0.133242
v 0.360633 -0.552470 0.133242
v 0.290747 -0.598385 -0.049956
v 0.366700 -0.567288 -0.049956
v 0.293664 -0.605509 -0.047621
v 0.369617 -0.574412 -0.047621
v 0.296352 -0.612075 -0.043829
v 0.372305 -0.580977 -0.043829
v 0.298708 -0.617830 -0.038725
v 0.374661 -0.586732 -0.038725
v 0.300642 -0.622553 -0.032507
v 0.376595 -0.591455 -0.032507
v 0.302079 -0.626062 -0.025412
v 0.378032 -0.594964 -0.025412
v 0.302964 -0.628223 -0.017714
v 0.378916 -0.597125 -0.017714
v 0.303262 -0.628953 -0.009708
v 0.379215 -0.597855 -0.009708
v 0.302964 -0.628223 -0.001703
v 0.378916 -0.597125 -0.001703
v 0.302079 -0.626062 0.005995
v 0.378032 -0.594964 0.005995
v 0.300642 -0.622553 0.013090
v 0.376595 -0.591455 0.013090
v 0.298708 -0.617830 0.019308
v 0.374661 -0.586732 0.019308
v 0.296352 -0.612075 0.024412
v 0.372305 -0.580977 0.024412
v 0.293664 -0.605509 0.028204
v 0.369617 -0.574412 0.028204
v 0.290747 -0.598385 0.030539
v 0.366700 -0.567288 0.030539
v 0.287714 -0.590976 0.031328
v 0.363666 -0.559879 0.031328
v 0.284680 -0.583568 0.030539
v 0.360633 -0.552470 0.030539
v 0.281763 -0.576443 0.028204
v 0.357716 -0.545346 0.028204
v 0.279075 -0.569878 0.024412
v 0.355028 -0.538780 0.024412
v 0.276719 -0.564123 0.019308
v 0.352672 -0.533025 0.019308
v 0.274785 -0.559400 0.013090
v 0.350738 -0.528303 0.013090
v 0.273348 -0.555891 0.005995
v 0.349301 -0.524793 0.005995
v 0.272464 -0.553730 -0.001703
v 0.348416 -0.522632 -0.001703
v 0.272165 -0.553000 -0.009709
v 0.348118 -0.521902 -0.009709
v 0.272464 -0.553730 -0.017714
v 0.348416 -0.522632 -0.017714
v 0.273348 -0.555891 -0.025412
v 0.349301 -0.524793 -0.025412
v 0.274785 -0.559400 -0.032507
v 0.350738 -0.528303 -0.032507
v 0.276719 -0.564123 -0.038725
v 0.352672 -0.533026 -0.038725
v 0.279075 -0.569878 -0.043829
v 0.355028 -0.538780 -0.043829
v 0.281763 -0.576443 -0.047621
v 0.357716 -0.545346 -0.047621
v 0.284680 -0.583568 -0.049956
v 0.360633 -0.552470 -0.049956
v 0.363666 -0.563861 -0.221995
v 0.287714 -0.594959 -0.221995
v 0.290747 -0.602368 -0.221206
v 0.366700 -0.571270 -0.221206
v 0.293664 -0.609492 -0.218871
v 0.369617 -0.578394 -0.218871
v 0.296352 -0.616057 -0.215079
v 0.372305 -0.584960 -0.215079
v 0.298708 -0.621812 -0.209976
v 0.374661 -0.590715 -0.209976
v 0.300642 -0.626535 -0.203757
v 0.376595 -0.595437 -0.203757
v 0.302079 -0.630044 -0.196663
v 0.378032 -0.598947 -0.196663
v 0.302964 -0.632206 -0.188965
v 0.378916 -0.601108 -0.188965
v 0.303262 -0.632935 -0.180959
v 0.379215 -0.601838 -0.180959
v 0.302964 -0.632206 -0.172953
v 0.378916 -0.601108 -0.172953
v 0.302079 -0.630044 -0.165255
v 0.378032 -0.598947 -0.165255
v 0.300642 -0.626535 -0.158160
v 0.376595 -0.595437 -0.158160
v 0.298708 -0.621812 -0.151942
v 0.374661 -0.590715 -0.151942
v 0.296352 -0.616057 -0.146838
v 0.372305 -0.584960 -0.146838
v 0.293664 -0.609492 -0.143046
v 0.369617 -0.578394 -0.143046
v 0.290747 -0.602368 -0.140711
v 0.366700 -0.571270 -0.140711
v 0.287714 -0.594959 -0.139923
v 0.363666 -0.563861 -0.139923
v 0.284680 -0.587550 -0.140711
v 0.360633 -0.556452 -0.140711
v 0.281763 -0.580426 -0.143046
v 0.357716 -0.549328 -0.143046
v 0.279075 -0.573860 -0.146838
v 0.355028 -0.542763 -0.146838
v 0.276719 -0.568106 -0.151942
v 0.352672 -0.537008 -0.151942
v 0.274785 -0.563383 -0.158160
v 0.350738 -0.532285 -0.158160
v 0.273348 -0.559873 -0.165255
v 0.349301 -0.528776 -0.165255
v 0.272464 -0.557712 -0.172953
v 0.348416 -0.526615 -0.172953
v 0.272165 -0.556983 -0.180959
v 0.348118 -0.525885 -0.180959
v 0.272464 -0.557712 -0.188965
v 0.348416 -0.526615 -0.188965
v 0.273348 -0.559873 -0.196663
v 0.349301 -0.528776 -0.196663
v 0.274785 -0.563383 -0.203757
v 0.350738 -0.532285 -0.203757
v 0.276719 -0.568106 -0.209976
v 0.352672 -0.537008 -0.209976
v 0.279075 -0.573860 -0.215079
v 0.355028 -0.542763 -0.215079
v 0.281763 -0.580426 -0.218871
v 0.357716 -0.549328 -0.218871
v 0.284680 -0.587550 -0.221206
v 0.360633 -0.556453 -0.221206
vn -0.9936 0.1134 0.0000
vn 0.0000 0.1134 -0.9936
vn 0.9936 0.1134 0.0000
vn 0.0000 0.1134 0.9936
vn 0.0000 -1.0000 0.0000
vn 0.0000 1.0000 0.0000
vn 0.2404 -0.5871 -0.7730
vn 0.9254 0.3789 0.0000
vn 0.0371 -0.0907 -0.9952
vn -0.9254 -0.3789 -0.0000
vn -0.1786 0.4362 -0.8819
vn 0.1100 -0.2686 -0.9569
vn 0.3342 -0.8162 -0.4714
vn -0.2404 0.5871 -0.7730
vn 0.1786 -0.4362 -0.8819
vn 0.3626 -0.8856 -0.2903
vn -0.2929 0.7154 -0.6344
vn 0.3771 -0.9210 -0.0980
vn -0.3342 0.8162 -0.4714
vn 0.2929 -0.7154 -0.6344
vn 0.3771 -0.9210 0.0980
vn -0.3626 0.8856 -0.2903
vn 0.3626 -0.8856 0.2903
vn -0.3771 0.9210 -0.0980
vn 0.3342 -0.8162 0.4714
vn -0.3771 0.9210 0.0980
vn 0.2929 -0.7154 0.6344
vn -0.3626 0.8856 0.2903
vn 0.2404 -0.5871 0.7730
vn -0.3342 0.8162 0.4714
vn 0.1786 -0.4362 0.8819
vn -0.2929 0.7154 0.6344
vn 0.1100 -0.2686 0.9569
vn -0.2404 0.5871 0.7730
vn 0.0371 -0.0907 0.9952
vn -0.1786 0.4362 0.8819
vn -0.0371 0.0907 0.9952
vn -0.1100 0.2686 0.9569
vn -0.0371 0.0907 -0.9952
vn -0.1100 0.2686 -0.9569
vn 0.0975 -0.1061 -0.9896
vn 0.2886 -0.1061 -0.9515
vn 0.4687 -0.1061 -0.8769
vn 0.6308 -0.1061 -0.7687
vn 0.7687 -0.1061 -0.6308
vn 0.8769 -0.1061 -0.4687
vn 0.9515 -0.1061 -0.2886
vn 0.9896 -0.1061 -0.0975
vn 0.9896 -0.1061 0.0975
vn 0.9515 -0.1061 0.2886
vn 0.8769 -0.1061 0.4687
vn 0.7687 -0.1061 0.6308
vn 0.6308 -0.1061 0.7687
vn 0.4687 -0.1061 0.8769
vn 0.2886 -0.1061 0.9515
vn 0.0975 -0.1061 0.9896
vn -0.0975 -0.1061 0.9896
vn -0.2886 -0.1061 0.9515
vn -0.4886 -0.1074 0.8659
vn -0.6130 -0.1074 0.7827
vn -0.7687 -0.1061 0.6308
vn -0.8769 -0.1061 0.4687
vn -0.9515 -0.1061 0.2886
vn -0.9896 -0.1061 0.0975
vn -0.9896 -0.1061 -0.0975
vn -0.9515 -0.1061 -0.2886
vn -0.8769 -0.1061 -0.4687
vn -0.7687 -0.1061 -0.6308
vn -0.6308 -0.1061 -0.7687
vn -0.4687 -0.1061 -0.8769
vn -0.2886 -0.1061 -0.9515
vn -0.0975 -0.1061 -0.9896
vn 0.0110 -0.9998 -0.0165
vn -0.2888 0.1009 0.9521
vn 0.6312 0.1009 0.7691
vn -0.0975 0.1009 -0.9901
vn -0.4690 0.1009 0.8774
vn 0.4690 0.1009 0.8774
vn 0.0975 0.1009 -0.9901
vn -0.6312 0.1009 0.7691
vn 0.2888 0.1009 0.9521
vn 0.2888 0.1009 -0.9521
vn -0.7691 0.1009 0.6312
vn 0.0975 0.1009 0.9901
vn 0.4690 0.1009 -0.8774
vn -0.8774 0.1009 0.4690
vn 0.6312 0.1009 -0.7691
vn -0.9521 0.1009 0.2888
vn 0.7691 0.1009 -0.6312
vn -0.9901 0.1009 0.0975
vn 0.8774 0.1009 -0.4690
vn -0.9901 0.1009 -0.0975
vn 0.9521 0.1009 -0.2888
vn -0.9521 0.1009 -0.2888
vn 0.9901 0.1009 -0.0975
vn -0.8774 0.1009 -0.4690
vn 0.9901 0.1009 0.0975
vn -0.7691 0.1009 -0.6312
vn 0.9521 0.1009 0.2888
vn -0.6312 0.1009 -0.7691
vn 0.8774 0.1009 0.4690
vn -0.4690 0.1009 -0.8774
vn -0.0975 0.1009 0.9901
vn 0.7691 0.1009 0.6312
vn -0.2888 0.1009 -0.9521
usemtl Material.001
s off
f 129//1 130//1 132//1 131//1
f 131//2 132//2 136//2 135//2
f 135//3 136//3 134//3 133//3
f 133//4 134//4 130//4 129//4
f 131//5 135//5 133//5 129//5
f 136//6 132//6 130//6 134//6
f 271//7 272//7 274//7 273//7
f 204//8 137//8 264//8 262//8 260//8 258//8 256//8 254//8 252//8 250//8 248//8 246//8 244//8 242//8 240//8 238//8 236//8 234//8 232//8 230//8 228//8 226//8 224//8 222//8 220//8 218//8 216//8 214//8 212//8 210//8 208//8 206//8
f 139//9 140//9 142//9 141//9
f 266//10 267//10 269//10 271//10 273//10 275//10 277//10 279//10 281//10 283//10 285//10 287//10 289//10 291//10 293//10 295//10 297//10 299//10 301//10 303//10 305//10 307//10 309//10 311//10 313//10 315//10 317//10 319//10 321//10 323//10 325//10 327//10
f 259//11 260//11 262//11 261//11
f 141//12 142//12 144//12 143//12
f 275//13 276//13 278//13 277//13
f 257//14 258//14 260//14 259//14
f 143//15 144//15 146//15 145//15
f 277//16 278//16 280//16 279//16
f 255//17 256//17 258//17 257//17
f 145//7 146//7 148//7 147//7
f 279//18 280//18 282//18 281//18
f 253//19 254//19 256//19 255//19
f 147//20 148//20 150//20 149//20
f 281//21 282//21 284//21 283//21
f 251//22 252//22 254//22 253//22
f 149//13 150//13 152//13 151//13
f 283//23 284//23 286//23 285//23
f 249//24 250//24 252//24 251//24
f 151//16 152//16 154//16 153//16
f 285//25 286//25 288//25 287//25
f 247//26 248//26 250//26 249//26
f 153//18 154//18 156//18 155//18
f 287//27 288//27 290//27 289//27
f 245//28 246//28 248//28 247//28
f 155//21 156//21 158//21 157//21
f 289//29 290//29 292//29 291//29
f 243//30 244//30 246//30 245//30
f 157//23 158//23 160//23 159//23
f 291//31 292//31 294//31 293//31
f 241//32 242//32 244//32 243//32
f 159//25 160//25 162//25 161//25
f 293//33 294//33 296//33 295//33
f 239//34 240//34 242//34 241//34
f 161//27 162//27 164//27 163//27
f 295//35 296//35 298//35 297//35
f 237//36 238//36 240//36 239//36
f 163//29 164//29 166//29 165//29
f 297//37 298//37 300//37 299//37
f 235//38 236//38 238//38 237//38
f 165//31 166//31 168//31 167//31
f 299//38 300//38 302//38 301//38
f 233//37 234//37 236//37 235//37
f 167//33 168//33 170//33 169//33
f 301//36 302//36 304//36 303//36
f 231//35 232//35 234//35 233//35
f 169//35 170//35 172//35 171//35
f 303//34 304//34 306//34 305//34
f 229//33 230//33 232//33 231//33
f 171//37 172//37 174//37 173//37
f 305//32 306//32 308//32 307//32
f 227//31 228//31 230//31 229//31
f 173//38 174//38 176//38 175//38
f 307//30 308//30 310//30 309//30
f 225//29 226//29 228//29 227//29
f 175//36 176//36 178//36 177//36
f 309//28 310//28 312//28 311//28
f 223//27 224//27 226//27 225//27
f 177//34 178//34 180//34 179//34
f 311//26 312//26 314//26 313//26
f 221//25 222//25 224//25 223//25
f 179//32 180//32 182//32 181//32
f 313//24 314//24 316//24 315//24
f 219//23 220//23 222//23 221//23
f 181//30 182//30 184//30 183//30
f 315//22 316//22 318//22 317//22
f 217//21 218//21 220//21 219//21
f 183//28 184//28 186//28 185//28
f 317//19 318//19 320//19 319//19
f 215//18 216//18 218//18 217//18
f 185//26 186//26 188//26 187//26
f 319//17 320//17 322//17 321//17
f 213//16 214//16 216//16 215//16
f 187//24 188//24 190//24 189//24
f 321//14 322//14 324//14 323//14
f 211//13 212//13 214//13 213//13
f 189//22 190//22 192//22 191//22
f 323//11 324//11 326//11 325//11
f 209//20 210//20 212//20 211//20
f 191//19 192//19 194//19 193//19
f 268//8 265//8 328//8 326//8 324//8 322//8 320//8 318//8 316//8 314//8 312//8 310//8 308//8 306//8 304//8 302//8 300//8 298//8 296//8 294//8 292//8 290//8 288//8 286//8 284//8 282//8 280//8 278//8 276//8 274//8 272//8 270//8
f 207//7 208//7 210//7 209//7
f 193//17 194//17 196//17 195//17
f 138//10 203//10 205//10 207//10 209//10 211//10 213//10 215//10 217//10 219//10 221//10 223//10 225//10 227//10 229//10 231//10 233//10 235//10 237//10 239//10 241//10 243//10 245//10 247//10 249//10 251//10 253//10 255//10 257//10 259//10 261//10 263//10
f 205//15 206//15 208//15 207//15
f 195//14 196//14 198//14 197//14
f 263//39 264//39 137//39 138//39
f 203//12 204//12 206//12 205//12
f 197//11 198//11 200//11 199//11
f 142//8 140//8 202//8 200//8 198//8 196//8 194//8 192//8 190//8 188//8 186//8 184//8 182//8 180//8 178//8 176//8 174//8 172//8 170//8 168//8 166//8 164//8 162//8 160//8 158//8 156//8 154//8 152//8 150//8 148//8 146//8 144//8
f 138//9 137//9 204//9 203//9
f 199//40 200//40 202//40 201//40
f 273//20 274//20 276//20 275//20
f 261//40 262//40 264//40 263//40
f 201//39 202//39 140//39 139//39
f 139//10 141//10 143//10 145//10 147//10 149//10 151//10 153//10 155//10 157//10 159//10 161//10 163//10 165//10 167//10 169//10 171//10 173//10 175//10 177//10 179//10 181//10 183//10 185//10 187//10 189//10 191//10 193//10 195//10 197//10 199//10 201//10
f 269//15 270//15 272//15 271//15
f 327//39 328//39 265//39 266//39
f 267//12 268//12 270//12 269//12
f 266//9 265//9 268//9 267//9
f 325//40 326//40 328//40 327//40
usemtl Material.002
f 1//41 2//41 4//41 3//41
f 3//42 4//42 6//42 5//42
f 5//43 6//43 8//43 7//43
f 7//44 8//44 10//44 9//44
f 9//45 10//45 12//45 11//45
f 11//46 12//46 14//46 13//46
f 13//47 14//47 16//47 15//47
f 15//48 16//48 18//48 17//48
f 17//49 18//49 20//49 19//49
f 19//50 20//50 22//50 21//50
f 21//51 22//51 24//51 23//51
f 23//52 24//52 26//52 25//52
f 25//53 26//53 28//53 27//53
f 27//54 28//54 30//54 29//54
f 29//55 30//55 32//55 31//55
f 31//56 32//56 34//56 33//56
f 33//57 34//57 36//57 35//57
f 35//58 36//58 38//58 37//58
f 37//59 38//59 40//59 39//59
f 39//60 40//60 42//60 41//60
f 41//61 42//61 44//61 43//61
f 43//62 44//62 46//62 45//62
f 45//63 46//63 48//63 47//63
f 47//64 48//64 50//64 49//64
f 49//65 50//65 52//65 51//65
f 51//66 52//66 54//66 53//66
f 53//67 54//67 56//67 55//67
f 55//68 56//68 58//68 57//68
f 57//69 58//69 60//69 59//69
f 59//70 60//70 62//70 61//70
f 14//6 12//6 70//6 71//6
f 61//71 62//71 64//71 63//71
f 63//72 64//72 2//72 1//72
f 1//73 3//73 5//73 7//73 9//73 11//73 13//73 15//73 17//73 19//73 21//73 23//73 25//73 27//73 29//73 31//73 33//73 35//73 37//73 39//73 41//73 43//73 45//73 47//73 49//73 51//73 53//73 55//73 57//73 59//73 61//73 63//73
f 67//74 65//74 97//74 99//74
f 32//6 30//6 79//6 80//6
f 50//6 48//6 88//6 89//6
f 6//6 4//6 65//6 67//6
f 24//6 22//6 75//6 76//6
f 42//6 40//6 84//6 85//6
f 60//6 58//6 93//6 94//6
f 16//6 14//6 71//6 72//6
f 34//6 32//6 80//6 81//6
f 52//6 50//6 89//6 90//6
f 8//6 6//6 67//6 68//6
f 26//6 24//6 76//6 77//6
f 44//6 42//6 85//6 86//6
f 62//6 60//6 94//6 95//6
f 18//6 16//6 72//6 73//6
f 36//6 34//6 81//6 82//6
f 54//6 52//6 90//6 91//6
f 10//6 8//6 68//6 69//6
f 28//6 26//6 77//6 78//6
f 46//6 44//6 86//6 87//6
f 64//6 62//6 95//6 96//6
f 20//6 18//6 73//6 74//6
f 38//6 36//6 82//6 83//6
f 56//6 54//6 91//6 92//6
f 12//6 10//6 69//6 70//6
f 30//6 28//6 78//6 79//6
f 48//6 46//6 87//6 88//6
f 4//6 2//6 66//6 65//6
f 2//6 64//6 96//6 66//6
f 22//6 20//6 74//6 75//6
f 40//6 38//6 83//6 84//6
f 58//6 56//6 92//6 93//6
f 97//6 98//6 128//6 127//6 126//6 125//6 124//6 123//6 122//6 121//6 120//6 119//6 118//6 117//6 116//6 115//6 114//6 113//6 112//6 111//6 110//6 109//6 108//6 107//6 106//6 105//6 104//6 103//6 102//6 101//6 100//6 99//6
f 94//75 93//75 125//75 126//75
f 81//76 80//76 112//76 113//76
f 68//77 67//77 99//77 100//77
f 95//78 94//78 126//78 127//78
f 82//79 81//79 113//79 114//79
f 69//80 68//80 100//80 101//80
f 96//81 95//81 127//81 128//81
f 83//82 82//82 114//82 115//82
f 70//83 69//83 101//83 102//83
f 66//84 96//84 128//84 98//84
f 84//85 83//85 115//85 116//85
f 71//86 70//86 102//86 103//86
f 85//87 84//87 116//87 117//87
f 72//88 71//88 103//88 104//88
f 86//89 85//89 117//89 118//89
f 73//90 72//90 104//90 105//90
f 87//91 86//91 118//91 119//91
f 74//92 73//92 105//92 106//92
f 88//93 87//93 119//93 120//93
f 75//94 74//94 106//94 107//94
f 89//95 88//95 120//95 121//95
f 76//96 75//96 107//96 108//96
f 90//97 89//97 121//97 122//97
f 77//98 76//98 108//98 109//98
f 91//99 90//99 122//99 123//99
f 78//100 77//100 109//100 110//100
f 92//101 91//101 123//101 124//101
f 79//102 78//102 110//102 111//102
f 65//103 66//103 98//103 97//103
f 93//104 92//104 124//104 125//104
f 80//105 79//105 111//105 112//105
